<?xml version="1.0" standalone="no"?>
<!DOCTYPE svg PUBLIC "-//W3C//DTD SVG 20010904//EN"
 "http://www.w3.org/TR/2001/REC-SVG-20010904/DTD/svg10.dtd">
<svg version="1.0" xmlns="http://www.w3.org/2000/svg"
 width="1000.000000pt" height="1000.000000pt" viewBox="0 0 1000.000000 1000.000000"
 preserveAspectRatio="xMidYMid meet">
<metadata>
Created by potrace 1.14, written by Peter Selinger 2001-2017
</metadata>
<g transform="translate(0.000000,1000.000000) scale(0.100000,-0.100000)"
fill="#000000" stroke="none">
<path d="M4555 9984 c-1388 -125 -2646 -813 -3512 -1921 -105 -135 -309 -440
-399 -598 -349 -615 -566 -1317 -629 -2040 -29 -329 -16 -807 31 -1130 88
-613 299 -1233 598 -1760 90 -158 294 -463 399 -598 482 -617 1090 -1109 1782
-1443 693 -334 1398 -494 2175 -494 777 0 1482 160 2175 494 1019 492 1848
1324 2340 2349 223 466 378 987 444 1497 31 235 41 401 41 660 0 130 -5 297
-10 371 -83 1075 -495 2071 -1198 2894 -116 135 -401 419 -542 539 -813 693
-1811 1104 -2879 1186 -183 14 -633 11 -816 -6z m670 -744 c684 -41 1317 -227
1883 -554 1573 -907 2394 -2680 2067 -4464 -210 -1141 -892 -2155 -1883 -2796
-556 -360 -1188 -579 -1882 -652 -208 -22 -612 -22 -820 0 -1009 106 -1887
521 -2591 1225 -409 410 -724 884 -937 1411 -340 842 -399 1790 -167 2675 290
1109 1030 2060 2043 2627 548 307 1197 494 1826 527 223 12 274 12 461 1z"/>
<path d="M4683 7210 c-99 -14 -180 -37 -281 -82 -522 -229 -773 -805 -581
-1332 109 -300 329 -521 633 -635 142 -54 216 -66 391 -65 170 0 226 10 374
65 346 130 598 421 677 784 23 107 23 312 0 420 -89 412 -420 743 -830 831
-86 18 -298 26 -383 14z m309 -604 c80 -28 160 -83 217 -149 50 -59 63 -83 90
-171 30 -97 28 -181 -7 -282 -33 -94 -43 -110 -119 -187 -66 -67 -153 -112
-258 -134 -195 -41 -427 81 -516 271 -125 266 23 582 311 662 77 22 205 17
282 -10z"/>
<path d="M2124 7177 c-2 -7 -3 -116 -2 -242 l3 -230 238 -3 237 -2 0 -763 c0
-580 3 -766 12 -775 16 -16 520 -17 549 -2 19 10 19 30 19 775 l0 765 238 2
237 3 3 229 c2 160 -1 233 -9 242 -16 20 -1517 21 -1525 1z"/>
<path d="M6126 7174 c-14 -14 -16 -87 -16 -657 0 -777 4 -817 100 -1007 105
-208 282 -340 533 -397 105 -24 393 -24 504 0 93 20 221 71 291 116 58 37 158
139 204 208 52 76 106 214 123 311 20 113 22 1411 3 1430 -18 18 -541 17 -557
-1 -7 -9 -11 -216 -13 -683 l-3 -669 -24 -59 c-47 -117 -140 -176 -276 -176
-121 0 -211 54 -262 158 l-28 57 -5 683 c-4 592 -7 684 -20 692 -8 6 -129 10
-277 10 -225 0 -264 -2 -277 -16z"/>
<path d="M2890 4894 c-170 -32 -303 -80 -426 -155 -94 -56 -231 -180 -297
-269 -63 -83 -130 -218 -168 -340 -34 -105 -34 -106 -33 -300 0 -181 2 -201
26 -275 111 -345 306 -567 616 -701 113 -49 221 -73 357 -80 251 -14 458 43
670 184 95 64 235 204 235 236 0 27 2 24 -185 171 -70 55 -149 117 -174 138
-70 57 -82 57 -145 -1 -106 -96 -217 -142 -346 -142 -355 0 -580 376 -416 698
34 68 130 164 198 198 186 95 378 67 551 -81 36 -30 72 -55 81 -55 17 0 403
300 424 330 8 10 11 27 8 38 -11 33 -157 171 -241 227 -184 122 -350 175 -570
180 -77 2 -151 1 -165 -1z"/>
<path d="M4880 4894 c-174 -33 -295 -76 -415 -146 -80 -47 -194 -138 -245
-194 -106 -117 -202 -292 -245 -449 -33 -118 -45 -318 -26 -432 71 -409 353
-732 748 -857 206 -64 484 -59 680 14 333 124 556 351 667 680 155 461 -42
978 -469 1235 -76 46 -214 103 -307 126 -81 20 -326 35 -388 23z m248 -594
c113 -26 239 -117 304 -219 165 -261 18 -626 -286 -707 -69 -19 -200 -18 -267
2 -152 44 -294 188 -329 333 -17 71 -15 198 4 263 42 147 181 281 336 324 55
15 180 17 238 4z"/>
<path d="M6262 4858 c-17 -17 -18 -1998 0 -2016 18 -18 541 -17 557 1 7 10 12
176 13 557 l3 542 94 -168 c92 -165 135 -241 211 -374 20 -36 57 -101 81 -145
178 -316 233 -411 243 -417 20 -14 551 -9 564 4 17 17 17 1999 0 2016 -15 15
-525 17 -548 2 -13 -8 -16 -79 -20 -507 l-5 -498 -49 80 c-27 44 -64 103 -81
130 -17 28 -50 79 -72 115 -22 36 -82 133 -133 215 -51 83 -111 180 -134 217
-23 37 -68 109 -101 160 l-60 93 -275 3 c-206 2 -279 -1 -288 -10z"/>
</g>
</svg>
